ffmpeg started on 2025-07-16 at 16:52:55
Report written to "D:\Convert\FFMetrics\reports\ssim_report-6.txt"
Log level: 32
Command line:
ffmpeg -hide_banner -nostdin -i "G:\\\xc0\xed\xe8\xec\xe5\\Shiza\\\xcb\xe5\xe3\xe5\xed\xe4\xe0 \xee \xc3\xf0\xe0\xed\xea\xf0\xe5\xf1\xf2\xe5\\[SHIZA Project] Grancrest Senki TV [14] [nDrOiDze & Lizaveta]_HEVC.mkv" -i "G:\\\xc0\xed\xe8\xec\xe5\\Shiza\\\xcb\xe5\xe3\xe5\xed\xe4\xe0 \xee \xc3\xf0\xe0\xed\xea\xf0\xe5\xf1\xf2\xe5\\[SHIZA Project] Grancrest Senki TV [14] [nDrOiDze & Lizaveta].mkv" -lavfi "[0:v]settb=AVTB,setpts=PTS-STARTPTS,format=pix_fmts=yuv420p10,fps=24000/1001,scale=1280:720:flags=bicubic[main];[1:v]settb=AVTB,setpts=PTS-STARTPTS,format=pix_fmts=yuv420p,fps=24000/1001,scale=1280:720:flags=bicubic[ref];[main][ref]ssim=eof_action=endall:stats_file='D\\:/Convert/FFMetrics/logs/ssim_logfile-6.txt'" -f null -
Input #0, matroska,webm, from 'G:\Аниме\Shiza\Легенда о Гранкресте\[SHIZA Project] Grancrest Senki TV [14] [nDrOiDze & Lizaveta]_HEVC.mkv':
  Metadata:
    ENCODER         : Lavf61.7.100
  Duration: 00:23:40.05, start: -0.021000, bitrate: 971 kb/s
  Stream #0:0(jpn): Video: hevc (Main 10), yuv420p10le(tv, bt709, progressive), 1280x720 [SAR 1:1 DAR 16:9], 23.81 fps, 23.81 tbr, 1k tbn (default)
      Metadata:
        title           : [SHIZA Project] Grancrest Senki TV [WEBRip]
        ENCODER         : Lavc61.19.100 libx265
        BPS             : 773105
        DURATION        : 00:23:40.020000000
        NUMBER_OF_FRAMES: 34047
        NUMBER_OF_BYTES : 137228115
        _STATISTICS_WRITING_APP: mkvpropedit v66.0.0 ('Josie') 64-bit
        _STATISTICS_WRITING_DATE_UTC: 2025-07-14 10:11:09
        _STATISTICS_TAGS: BPS DURATION NUMBER_OF_FRAMES NUMBER_OF_BYTES
  Stream #0:1(rus): Audio: aac (LC), 48000 Hz, stereo, fltp (default)
      Metadata:
        title           : nDrOiDze & Lizaveta
        ENCODER         : Lavc61.19.100 aac
        BPS             : 194746
        DURATION        : 00:23:40.032000000
        NUMBER_OF_FRAMES: 66565
        NUMBER_OF_BYTES : 34568236
        _STATISTICS_WRITING_APP: mkvpropedit v66.0.0 ('Josie') 64-bit
        _STATISTICS_WRITING_DATE_UTC: 2025-07-14 10:11:09
        _STATISTICS_TAGS: BPS DURATION NUMBER_OF_FRAMES NUMBER_OF_BYTES
Input #1, matroska,webm, from 'G:\Аниме\Shiza\Легенда о Гранкресте\[SHIZA Project] Grancrest Senki TV [14] [nDrOiDze & Lizaveta].mkv':
  Metadata:
    encoder         : libebml v1.3.4 + libmatroska v1.4.5
    creation_time   : 2018-05-08T19:11:07.000000Z
  Duration: 00:23:40.03, start: 0.000000, bitrate: 1967 kb/s
  Stream #1:0(jpn): Video: h264 (High), yuv420p(progressive), 1280x720 [SAR 1:1 DAR 16:9], 23.81 fps, 23.81 tbr, 1k tbn (default)
      Metadata:
        title           : [SHIZA Project] Grancrest Senki TV [WEBRip]
        BPS             : 1769679
        BPS-eng         : 1769679
        DURATION        : 00:23:40.003000000
        DURATION-eng    : 00:23:40.003000000
        NUMBER_OF_FRAMES: 34047
        NUMBER_OF_FRAMES-eng: 34047
        NUMBER_OF_BYTES : 314118847
        NUMBER_OF_BYTES-eng: 314118847
        _STATISTICS_WRITING_APP: mkvmerge v10.0.0 ('To Drown In You') 64bit
        _STATISTICS_WRITING_APP-eng: mkvmerge v10.0.0 ('To Drown In You') 64bit
        _STATISTICS_WRITING_DATE_UTC: 2018-05-08 19:11:07
        _STATISTICS_WRITING_DATE_UTC-eng: 2018-05-08 19:11:07
        _STATISTICS_TAGS: BPS DURATION NUMBER_OF_FRAMES NUMBER_OF_BYTES
        _STATISTICS_TAGS-eng: BPS DURATION NUMBER_OF_FRAMES NUMBER_OF_BYTES
  Stream #1:1(rus): Audio: aac (LC), 48000 Hz, stereo, fltp (default)
      Metadata:
        title           : nDrOiDze & Lizaveta
        BPS             : 193691
        BPS-eng         : 193691
        DURATION        : 00:23:40.032000000
        DURATION-eng    : 00:23:40.032000000
        NUMBER_OF_FRAMES: 66564
        NUMBER_OF_FRAMES-eng: 66564
        NUMBER_OF_BYTES : 34380937
        NUMBER_OF_BYTES-eng: 34380937
        _STATISTICS_WRITING_APP: mkvmerge v10.0.0 ('To Drown In You') 64bit
        _STATISTICS_WRITING_APP-eng: mkvmerge v10.0.0 ('To Drown In You') 64bit
        _STATISTICS_WRITING_DATE_UTC: 2018-05-08 19:11:07
        _STATISTICS_WRITING_DATE_UTC-eng: 2018-05-08 19:11:07
        _STATISTICS_TAGS: BPS DURATION NUMBER_OF_FRAMES NUMBER_OF_BYTES
        _STATISTICS_TAGS-eng: BPS DURATION NUMBER_OF_FRAMES NUMBER_OF_BYTES
  Stream #1:2: Attachment: ttf
      Metadata:
        filename        : OpenSans-Semibold.ttf
        mimetype        : application/x-truetype-font
Stream mapping:
  Stream #0:0 (hevc) -> settb:default
  Stream #1:0 (h264) -> settb:default
  ssim:default -> Stream #0:0 (wrapped_avframe)
  Stream #0:1 -> #0:1 (aac (native) -> pcm_s16le (native))
[swscaler @ 000001425e523180] No accelerated colorspace conversion found from yuv420p to bgr48le.
[swscaler @ 000001425e6cb2c0] No accelerated colorspace conversion found from yuv420p to bgr48le.
[swscaler @ 000001425e7a4cc0] No accelerated colorspace conversion found from yuv420p to bgr48le.
[swscaler @ 000001425e8cf600] No accelerated colorspace conversion found from yuv420p to bgr48le.
[swscaler @ 000001425ea336c0] No accelerated colorspace conversion found from yuv420p to bgr48le.
[swscaler @ 000001425eb6b7c0] No accelerated colorspace conversion found from yuv420p to bgr48le.
[swscaler @ 000001425ecba500] No accelerated colorspace conversion found from yuv420p to bgr48le.
[swscaler @ 000001425ed20880] No accelerated colorspace conversion found from yuv420p to bgr48le.
[swscaler @ 000001425ef12b00] No accelerated colorspace conversion found from yuv420p to bgr48le.
[swscaler @ 000001425efabb40] No accelerated colorspace conversion found from yuv420p to bgr48le.
[swscaler @ 000001425f0c57c0] No accelerated colorspace conversion found from yuv420p to bgr48le.
[swscaler @ 000001425f123040] No accelerated colorspace conversion found from yuv420p to bgr48le.
[swscaler @ 000001425f1a6040] No accelerated colorspace conversion found from yuv420p to bgr48le.
[swscaler @ 000001425f215040] No accelerated colorspace conversion found from yuv420p to bgr48le.
[swscaler @ 000001425f27d040] No accelerated colorspace conversion found from yuv420p to bgr48le.
[swscaler @ 000001425f301040] No accelerated colorspace conversion found from yuv420p to bgr48le.
Output #0, null, to 'pipe:':
  Metadata:
    encoder         : Lavf61.7.100
  Stream #0:0: Video: wrapped_avframe, yuv420p10le(tv, bt709, progressive), 1280x720 [SAR 1:1 DAR 16:9], q=2-31, 200 kb/s, 23.98 fps, 23.98 tbn
      Metadata:
        encoder         : Lavc61.19.100 wrapped_avframe
  Stream #0:1(rus): Audio: pcm_s16le, 48000 Hz, stereo, s16, 1536 kb/s (default)
      Metadata:
        title           : nDrOiDze & Lizaveta
        _STATISTICS_TAGS: BPS DURATION NUMBER_OF_FRAMES NUMBER_OF_BYTES
        BPS             : 194746
        DURATION        : 00:23:40.032000000
        NUMBER_OF_FRAMES: 66565
        NUMBER_OF_BYTES : 34568236
        _STATISTICS_WRITING_APP: mkvpropedit v66.0.0 ('Josie') 64-bit
        _STATISTICS_WRITING_DATE_UTC: 2025-07-14 10:11:09
        encoder         : Lavc61.19.100 pcm_s16le
frame=   78 fps=0.0 q=-0.0 size=N/A time=00:00:03.25 bitrate=N/A speed=6.28x    frame=  169 fps=163 q=-0.0 size=N/A time=00:00:07.04 bitrate=N/A speed=6.79x    frame=  265 fps=170 q=-0.0 size=N/A time=00:00:11.05 bitrate=N/A speed=7.07x    frame=  353 fps=170 q=-0.0 size=N/A time=00:00:14.72 bitrate=N/A speed=7.11x    frame=  451 fps=174 q=-0.0 size=N/A time=00:00:18.81 bitrate=N/A speed=7.25x    frame=  542 fps=175 q=-0.0 size=N/A time=00:00:22.60 bitrate=N/A speed=7.29x    frame=  638 fps=176 q=-0.0 size=N/A time=00:00:26.60 bitrate=N/A speed=7.34x    frame=  730 fps=177 q=-0.0 size=N/A time=00:00:30.44 bitrate=N/A speed=7.36x    frame=  824 fps=177 q=-0.0 size=N/A time=00:00:34.36 bitrate=N/A speed=7.38x    frame=  906 fps=175 q=-0.0 size=N/A time=00:00:37.78 bitrate=N/A speed=7.32x    frame= 1009 fps=177 q=-0.0 size=N/A time=00:00:42.08 bitrate=N/A speed= 7.4x    frame= 1105 fps=178 q=-0.0 size=N/A time=00:00:46.08 bitrate=N/A speed=7.42x    frame= 1199 fps=178 q=-0.0 size=N/A time=00:00:50.00 bitrate=N/A speed=7.43x    frame= 1291 fps=178 q=-0.0 size=N/A time=00:00:53.84 bitrate=N/A speed=7.43x    frame= 1387 fps=179 q=-0.0 size=N/A time=00:00:57.84 bitrate=N/A speed=7.45x    frame= 1479 fps=179 q=-0.0 size=N/A time=00:01:01.68 bitrate=N/A speed=7.46x    frame= 1574 fps=179 q=-0.0 size=N/A time=00:01:05.64 bitrate=N/A speed=7.47x    frame= 1666 fps=179 q=-0.0 size=N/A time=00:01:09.48 bitrate=N/A speed=7.47x    frame= 1762 fps=179 q=-0.0 size=N/A time=00:01:13.49 bitrate=N/A speed=7.48x    frame= 1857 fps=179 q=-0.0 size=N/A time=00:01:17.45 bitrate=N/A speed=7.49x    frame= 1952 fps=180 q=-0.0 size=N/A time=00:01:21.41 bitrate=N/A speed=7.49x    frame= 2044 fps=180 q=-0.0 size=N/A time=00:01:25.25 bitrate=N/A speed=7.49x    frame= 2138 fps=180 q=-0.0 size=N/A time=00:01:29.17 bitrate=N/A speed= 7.5x    frame= 2237 fps=180 q=-0.0 size=N/A time=00:01:33.30 bitrate=N/A speed=7.51x    frame= 2329 fps=180 q=-0.0 size=N/A time=00:01:37.13 bitrate=N/A speed=7.52x    frame= 2422 fps=180 q=-0.0 size=N/A time=00:01:41.01 bitrate=N/A speed=7.51x    frame= 2521 fps=180 q=-0.0 size=N/A time=00:01:45.14 bitrate=N/A speed=7.53x    frame= 2615 fps=181 q=-0.0 size=N/A time=00:01:49.06 bitrate=N/A speed=7.54x    frame= 2702 fps=180 q=-0.0 size=N/A time=00:01:52.69 bitrate=N/A speed=7.51x    frame= 2802 fps=181 q=-0.0 size=N/A time=00:01:56.86 bitrate=N/A speed=7.54x    frame= 2894 fps=181 q=-0.0 size=N/A time=00:02:00.70 bitrate=N/A speed=7.53x    frame= 2988 fps=181 q=-0.0 size=N/A time=00:02:04.62 bitrate=N/A speed=7.54x    frame= 3088 fps=181 q=-0.0 size=N/A time=00:02:08.79 bitrate=N/A speed=7.55x    frame= 3185 fps=181 q=-0.0 size=N/A time=00:02:12.84 bitrate=N/A speed=7.56x    frame= 3275 fps=181 q=-0.0 size=N/A time=00:02:16.59 bitrate=N/A speed=7.55x    frame= 3376 fps=181 q=-0.0 size=N/A time=00:02:20.80 bitrate=N/A speed=7.57x    frame= 3472 fps=182 q=-0.0 size=N/A time=00:02:24.81 bitrate=N/A speed=7.58x    frame= 3568 fps=182 q=-0.0 size=N/A time=00:02:28.81 bitrate=N/A speed=7.58x    frame= 3665 fps=182 q=-0.0 size=N/A time=00:02:32.86 bitrate=N/A speed=7.59x    frame= 3759 fps=182 q=-0.0 size=N/A time=00:02:36.78 bitrate=N/A speed=7.59x    frame= 3849 fps=182 q=-0.0 size=N/A time=00:02:40.53 bitrate=N/A speed=7.58x    frame= 3950 fps=182 q=-0.0 size=N/A time=00:02:44.74 bitrate=N/A speed=7.59x    frame= 4048 fps=182 q=-0.0 size=N/A time=00:02:48.83 bitrate=N/A speed= 7.6x    frame= 4141 fps=182 q=-0.0 size=N/A time=00:02:52.71 bitrate=N/A speed= 7.6x    frame= 4236 fps=182 q=-0.0 size=N/A time=00:02:56.67 bitrate=N/A speed= 7.6x    frame= 4329 fps=182 q=-0.0 size=N/A time=00:03:00.55 bitrate=N/A speed= 7.6x    frame= 4424 fps=182 q=-0.0 size=N/A time=00:03:04.51 bitrate=N/A speed= 7.6x    frame= 4521 fps=182 q=-0.0 size=N/A time=00:03:08.56 bitrate=N/A speed=7.61x    frame= 4617 fps=182 q=-0.0 size=N/A time=00:03:12.56 bitrate=N/A speed=7.61x    frame= 4713 fps=182 q=-0.0 size=N/A time=00:03:16.57 bitrate=N/A speed=7.61x    frame= 4807 fps=183 q=-0.0 size=N/A time=00:03:20.49 bitrate=N/A speed=7.61x    frame= 4902 fps=183 q=-0.0 size=N/A time=00:03:24.45 bitrate=N/A speed=7.61x    frame= 4996 fps=183 q=-0.0 size=N/A time=00:03:28.37 bitrate=N/A speed=7.62x    frame= 5094 fps=183 q=-0.0 size=N/A time=00:03:32.46 bitrate=N/A speed=7.62x    frame= 5187 fps=183 q=-0.0 size=N/A time=00:03:36.34 bitrate=N/A speed=7.62x    frame= 5285 fps=183 q=-0.0 size=N/A time=00:03:40.42 bitrate=N/A speed=7.62x    frame= 5378 fps=183 q=-0.0 size=N/A time=00:03:44.30 bitrate=N/A speed=7.62x    frame= 5471 fps=183 q=-0.0 size=N/A time=00:03:48.18 bitrate=N/A speed=7.62x    frame= 5568 fps=183 q=-0.0 size=N/A time=00:03:52.23 bitrate=N/A speed=7.62x    frame= 5659 fps=183 q=-0.0 size=N/A time=00:03:56.02 bitrate=N/A speed=7.62x    frame= 5756 fps=183 q=-0.0 size=N/A time=00:04:00.07 bitrate=N/A speed=7.62x    frame= 5853 fps=183 q=-0.0 size=N/A time=00:04:04.11 bitrate=N/A speed=7.63x    frame= 5951 fps=183 q=-0.0 size=N/A time=00:04:08.20 bitrate=N/A speed=7.63x    frame= 6046 fps=183 q=-0.0 size=N/A time=00:04:12.16 bitrate=N/A speed=7.63x    frame= 6141 fps=183 q=-0.0 size=N/A time=00:04:16.13 bitrate=N/A speed=7.63x    frame= 6237 fps=183 q=-0.0 size=N/A time=00:04:20.13 bitrate=N/A speed=7.63x    frame= 6331 fps=183 q=-0.0 size=N/A time=00:04:24.05 bitrate=N/A speed=7.63x    frame= 6428 fps=183 q=-0.0 size=N/A time=00:04:28.10 bitrate=N/A speed=7.64x    frame= 6522 fps=183 q=-0.0 size=N/A time=00:04:32.02 bitrate=N/A speed=7.64x    frame= 6618 fps=183 q=-0.0 size=N/A time=00:04:36.02 bitrate=N/A speed=7.64x    frame= 6713 fps=183 q=-0.0 size=N/A time=00:04:39.98 bitrate=N/A speed=7.64x    frame= 6808 fps=183 q=-0.0 size=N/A time=00:04:43.95 bitrate=N/A speed=7.64x    frame= 6904 fps=183 q=-0.0 size=N/A time=00:04:47.95 bitrate=N/A speed=7.64x    frame= 6992 fps=183 q=-0.0 size=N/A time=00:04:51.62 bitrate=N/A speed=7.63x    frame= 7093 fps=183 q=-0.0 size=N/A time=00:04:55.83 bitrate=N/A speed=7.64x    frame= 7190 fps=183 q=-0.0 size=N/A time=00:04:59.88 bitrate=N/A speed=7.64x    frame= 7275 fps=183 q=-0.0 size=N/A time=00:05:03.42 bitrate=N/A speed=7.64x    frame= 7369 fps=183 q=-0.0 size=N/A time=00:05:07.34 bitrate=N/A speed=7.63x    frame= 7470 fps=183 q=-0.0 size=N/A time=00:05:11.56 bitrate=N/A speed=7.64x    frame= 7562 fps=183 q=-0.0 size=N/A time=00:05:15.39 bitrate=N/A speed=7.64x    frame= 7655 fps=183 q=-0.0 size=N/A time=00:05:19.27 bitrate=N/A speed=7.64x    frame= 7748 fps=183 q=-0.0 size=N/A time=00:05:23.15 bitrate=N/A speed=7.64x    frame= 7843 fps=183 q=-0.0 size=N/A time=00:05:27.11 bitrate=N/A speed=7.64x    frame= 7937 fps=183 q=-0.0 size=N/A time=00:05:31.03 bitrate=N/A speed=7.63x    frame= 8029 fps=183 q=-0.0 size=N/A time=00:05:34.87 bitrate=N/A speed=7.63x    frame= 8126 fps=183 q=-0.0 size=N/A time=00:05:38.92 bitrate=N/A speed=7.64x    frame= 8220 fps=183 q=-0.0 size=N/A time=00:05:42.84 bitrate=N/A speed=7.64x    frame= 8311 fps=183 q=-0.0 size=N/A time=00:05:46.63 bitrate=N/A speed=7.63x    frame= 8405 fps=183 q=-0.0 size=N/A time=00:05:50.55 bitrate=N/A speed=7.63x    frame= 8500 fps=183 q=-0.0 size=N/A time=00:05:54.52 bitrate=N/A speed=7.63x    frame= 8583 fps=183 q=-0.0 size=N/A time=00:05:57.98 bitrate=N/A speed=7.62x    frame= 8684 fps=183 q=-0.0 size=N/A time=00:06:02.19 bitrate=N/A speed=7.63x    frame= 8776 fps=183 q=-0.0 size=N/A time=00:06:06.03 bitrate=N/A speed=7.63x    frame= 8873 fps=183 q=-0.0 size=N/A time=00:06:10.07 bitrate=N/A speed=7.63x    frame= 8955 fps=183 q=-0.0 size=N/A time=00:06:13.49 bitrate=N/A speed=7.62x    frame= 9062 fps=183 q=-0.0 size=N/A time=00:06:17.96 bitrate=N/A speed=7.63x    frame= 9158 fps=183 q=-0.0 size=N/A time=00:06:21.96 bitrate=N/A speed=7.63x    frame= 9254 fps=183 q=-0.0 size=N/A time=00:06:25.96 bitrate=N/A speed=7.63x    frame= 9348 fps=183 q=-0.0 size=N/A time=00:06:29.88 bitrate=N/A speed=7.63x    frame= 9437 fps=183 q=-0.0 size=N/A time=00:06:33.60 bitrate=N/A speed=7.63x    frame= 9534 fps=183 q=-0.0 size=N/A time=00:06:37.64 bitrate=N/A speed=7.63x    frame= 9628 fps=183 q=-0.0 size=N/A time=00:06:41.56 bitrate=N/A speed=7.63x    frame= 9712 fps=183 q=-0.0 size=N/A time=00:06:45.07 bitrate=N/A speed=7.62x    frame= 9810 fps=183 q=-0.0 size=N/A time=00:06:49.15 bitrate=N/A speed=7.62x    frame= 9900 fps=183 q=-0.0 size=N/A time=00:06:52.91 bitrate=N/A speed=7.62x    frame= 9994 fps=183 q=-0.0 size=N/A time=00:06:56.83 bitrate=N/A speed=7.62x    frame=10084 fps=183 q=-0.0 size=N/A time=00:07:00.58 bitrate=N/A speed=7.62x    frame=10181 fps=183 q=-0.0 size=N/A time=00:07:04.63 bitrate=N/A speed=7.62x    frame=10277 fps=183 q=-0.0 size=N/A time=00:07:08.63 bitrate=N/A speed=7.62x    frame=10372 fps=183 q=-0.0 size=N/A time=00:07:12.59 bitrate=N/A speed=7.62x    frame=10458 fps=183 q=-0.0 size=N/A time=00:07:16.18 bitrate=N/A speed=7.62x    frame=10555 fps=183 q=-0.0 size=N/A time=00:07:20.23 bitrate=N/A speed=7.62x    frame=10643 fps=183 q=-0.0 size=N/A time=00:07:23.90 bitrate=N/A speed=7.61x    frame=10745 fps=183 q=-0.0 size=N/A time=00:07:28.15 bitrate=N/A speed=7.62x    frame=10842 fps=183 q=-0.0 size=N/A time=00:07:32.20 bitrate=N/A speed=7.62x    frame=10931 fps=183 q=-0.0 size=N/A time=00:07:35.91 bitrate=N/A speed=7.62x    frame=11026 fps=183 q=-0.0 size=N/A time=00:07:39.87 bitrate=N/A speed=7.62x    frame=11107 fps=182 q=-0.0 size=N/A time=00:07:43.25 bitrate=N/A speed=7.61x    frame=11213 fps=183 q=-0.0 size=N/A time=00:07:47.67 bitrate=N/A speed=7.62x    frame=11302 fps=183 q=-0.0 size=N/A time=00:07:51.38 bitrate=N/A speed=7.61x    frame=11401 fps=183 q=-0.0 size=N/A time=00:07:55.51 bitrate=N/A speed=7.62x    frame=11492 fps=183 q=-0.0 size=N/A time=00:07:59.31 bitrate=N/A speed=7.61x    frame=11577 fps=182 q=-0.0 size=N/A time=00:08:02.85 bitrate=N/A speed=7.61x    frame=11673 fps=182 q=-0.0 size=N/A time=00:08:06.86 bitrate=N/A speed=7.61x    frame=11765 fps=182 q=-0.0 size=N/A time=00:08:10.69 bitrate=N/A speed=7.61x    frame=11857 fps=182 q=-0.0 size=N/A time=00:08:14.53 bitrate=N/A speed=7.61x    frame=11947 fps=182 q=-0.0 size=N/A time=00:08:18.28 bitrate=N/A speed= 7.6x    frame=12047 fps=182 q=-0.0 size=N/A time=00:08:22.46 bitrate=N/A speed=7.61x    frame=12138 fps=182 q=-0.0 size=N/A time=00:08:26.25 bitrate=N/A speed=7.61x    frame=12229 fps=182 q=-0.0 size=N/A time=00:08:30.05 bitrate=N/A speed= 7.6x    frame=12319 fps=182 q=-0.0 size=N/A time=00:08:33.80 bitrate=N/A speed= 7.6x    frame=12416 fps=182 q=-0.0 size=N/A time=00:08:37.85 bitrate=N/A speed= 7.6x    frame=12512 fps=182 q=-0.0 size=N/A time=00:08:41.85 bitrate=N/A speed= 7.6x    frame=12601 fps=182 q=-0.0 size=N/A time=00:08:45.56 bitrate=N/A speed= 7.6x    frame=12701 fps=182 q=-0.0 size=N/A time=00:08:49.73 bitrate=N/A speed=7.61x    frame=12796 fps=182 q=-0.0 size=N/A time=00:08:53.69 bitrate=N/A speed=7.61x    frame=12884 fps=182 q=-0.0 size=N/A time=00:08:57.37 bitrate=N/A speed= 7.6x    frame=12977 fps=182 q=-0.0 size=N/A time=00:09:01.24 bitrate=N/A speed= 7.6x    frame=13074 fps=182 q=-0.0 size=N/A time=00:09:05.29 bitrate=N/A speed= 7.6x    frame=13170 fps=182 q=-0.0 size=N/A time=00:09:09.29 bitrate=N/A speed= 7.6x    frame=13266 fps=182 q=-0.0 size=N/A time=00:09:13.30 bitrate=N/A speed= 7.6x    frame=13358 fps=182 q=-0.0 size=N/A time=00:09:17.13 bitrate=N/A speed= 7.6x    frame=13444 fps=182 q=-0.0 size=N/A time=00:09:20.72 bitrate=N/A speed= 7.6x    frame=13541 fps=182 q=-0.0 size=N/A time=00:09:24.77 bitrate=N/A speed= 7.6x    frame=13609 fps=182 q=-0.0 size=N/A time=00:09:27.60 bitrate=N/A speed=7.59x    frame=13712 fps=182 q=-0.0 size=N/A time=00:09:31.90 bitrate=N/A speed=7.59x    frame=13802 fps=182 q=-0.0 size=N/A time=00:09:35.65 bitrate=N/A speed=7.59x    frame=13890 fps=182 q=-0.0 size=N/A time=00:09:39.32 bitrate=N/A speed=7.59x    frame=13989 fps=182 q=-0.0 size=N/A time=00:09:43.45 bitrate=N/A speed=7.59x    frame=14076 fps=182 q=-0.0 size=N/A time=00:09:47.08 bitrate=N/A speed=7.59x    frame=14175 fps=182 q=-0.0 size=N/A time=00:09:51.21 bitrate=N/A speed=7.59x    frame=14262 fps=182 q=-0.0 size=N/A time=00:09:54.84 bitrate=N/A speed=7.58x    frame=14357 fps=182 q=-0.0 size=N/A time=00:09:58.80 bitrate=N/A speed=7.58x    frame=14452 fps=182 q=-0.0 size=N/A time=00:10:02.76 bitrate=N/A speed=7.59x    frame=14542 fps=182 q=-0.0 size=N/A time=00:10:06.52 bitrate=N/A speed=7.58x    frame=14642 fps=182 q=-0.0 size=N/A time=00:10:10.69 bitrate=N/A speed=7.59x    frame=14734 fps=182 q=-0.0 size=N/A time=00:10:14.53 bitrate=N/A speed=7.59x    frame=14818 fps=182 q=-0.0 size=N/A time=00:10:18.03 bitrate=N/A speed=7.58x    frame=14921 fps=182 q=-0.0 size=N/A time=00:10:22.33 bitrate=N/A speed=7.59x    frame=15016 fps=182 q=-0.0 size=N/A time=00:10:26.29 bitrate=N/A speed=7.59x    frame=15112 fps=182 q=-0.0 size=N/A time=00:10:30.29 bitrate=N/A speed=7.59x    frame=15203 fps=182 q=-0.0 size=N/A time=00:10:34.09 bitrate=N/A speed=7.59x    frame=15294 fps=182 q=-0.0 size=N/A time=00:10:37.88 bitrate=N/A speed=7.58x    frame=15391 fps=182 q=-0.0 size=N/A time=00:10:41.93 bitrate=N/A speed=7.59x    frame=15484 fps=182 q=-0.0 size=N/A time=00:10:45.81 bitrate=N/A speed=7.59x    frame=15579 fps=182 q=-0.0 size=N/A time=00:10:49.77 bitrate=N/A speed=7.59x    frame=15676 fps=182 q=-0.0 size=N/A time=00:10:53.81 bitrate=N/A speed=7.59x    frame=15770 fps=182 q=-0.0 size=N/A time=00:10:57.74 bitrate=N/A speed=7.59x    frame=15865 fps=182 q=-0.0 size=N/A time=00:11:01.70 bitrate=N/A speed=7.59x    frame=15957 fps=182 q=-0.0 size=N/A time=00:11:05.53 bitrate=N/A speed=7.59x    frame=16056 fps=182 q=-0.0 size=N/A time=00:11:09.66 bitrate=N/A speed=7.59x    frame=16148 fps=182 q=-0.0 size=N/A time=00:11:13.50 bitrate=N/A speed=7.59x    frame=16243 fps=182 q=-0.0 size=N/A time=00:11:17.46 bitrate=N/A speed=7.59x    frame=16338 fps=182 q=-0.0 size=N/A time=00:11:21.43 bitrate=N/A speed=7.59x    frame=16432 fps=182 q=-0.0 size=N/A time=00:11:25.35 bitrate=N/A speed=7.59x    frame=16519 fps=182 q=-0.0 size=N/A time=00:11:28.97 bitrate=N/A speed=7.59x    frame=16618 fps=182 q=-0.0 size=N/A time=00:11:33.10 bitrate=N/A speed=7.59x    frame=16714 fps=182 q=-0.0 size=N/A time=00:11:37.11 bitrate=N/A speed=7.59x    frame=16804 fps=182 q=-0.0 size=N/A time=00:11:40.86 bitrate=N/A speed=7.59x    frame=16898 fps=182 q=-0.0 size=N/A time=00:11:44.78 bitrate=N/A speed=7.59x    frame=16990 fps=182 q=-0.0 size=N/A time=00:11:48.62 bitrate=N/A speed=7.59x    frame=17083 fps=182 q=-0.0 size=N/A time=00:11:52.50 bitrate=N/A speed=7.59x    frame=17167 fps=182 q=-0.0 size=N/A time=00:11:56.00 bitrate=N/A speed=7.58x    frame=17262 fps=182 q=-0.0 size=N/A time=00:11:59.96 bitrate=N/A speed=7.58x    frame=17353 fps=182 q=-0.0 size=N/A time=00:12:03.76 bitrate=N/A speed=7.58x    frame=17445 fps=182 q=-0.0 size=N/A time=00:12:07.60 bitrate=N/A speed=7.58x    frame=17539 fps=182 q=-0.0 size=N/A time=00:12:11.52 bitrate=N/A speed=7.58x    frame=17625 fps=182 q=-0.0 size=N/A time=00:12:15.10 bitrate=N/A speed=7.58x    frame=17726 fps=182 q=-0.0 size=N/A time=00:12:19.32 bitrate=N/A speed=7.58x    frame=17816 fps=182 q=-0.0 size=N/A time=00:12:23.07 bitrate=N/A speed=7.58x    frame=17910 fps=182 q=-0.0 size=N/A time=00:12:26.99 bitrate=N/A speed=7.58x    frame=17999 fps=182 q=-0.0 size=N/A time=00:12:30.70 bitrate=N/A speed=7.58x    frame=18097 fps=182 q=-0.0 size=N/A time=00:12:34.79 bitrate=N/A speed=7.58x    frame=18190 fps=182 q=-0.0 size=N/A time=00:12:38.67 bitrate=N/A speed=7.58x    frame=18282 fps=182 q=-0.0 size=N/A time=00:12:42.51 bitrate=N/A speed=7.58x    frame=18368 fps=182 q=-0.0 size=N/A time=00:12:46.09 bitrate=N/A speed=7.58x    frame=18471 fps=182 q=-0.0 size=N/A time=00:12:50.39 bitrate=N/A speed=7.58x    frame=18561 fps=182 q=-0.0 size=N/A time=00:12:54.14 bitrate=N/A speed=7.58x    frame=18652 fps=182 q=-0.0 size=N/A time=00:12:57.94 bitrate=N/A speed=7.58x    frame=18753 fps=182 q=-0.0 size=N/A time=00:13:02.15 bitrate=N/A speed=7.58x    frame=18841 fps=182 q=-0.0 size=N/A time=00:13:05.82 bitrate=N/A speed=7.58x    frame=18933 fps=182 q=-0.0 size=N/A time=00:13:09.66 bitrate=N/A speed=7.58x    frame=19031 fps=182 q=-0.0 size=N/A time=00:13:13.75 bitrate=N/A speed=7.58x    frame=19116 fps=182 q=-0.0 size=N/A time=00:13:17.29 bitrate=N/A speed=7.58x    frame=19217 fps=182 q=-0.0 size=N/A time=00:13:21.50 bitrate=N/A speed=7.58x    frame=19307 fps=182 q=-0.0 size=N/A time=00:13:25.26 bitrate=N/A speed=7.58x    frame=19401 fps=182 q=-0.0 size=N/A time=00:13:29.18 bitrate=N/A speed=7.58x    frame=19497 fps=182 q=-0.0 size=N/A time=00:13:33.18 bitrate=N/A speed=7.58x    frame=19584 fps=182 q=-0.0 size=N/A time=00:13:36.81 bitrate=N/A speed=7.58x    frame=19684 fps=182 q=-0.0 size=N/A time=00:13:40.98 bitrate=N/A speed=7.58x    frame=19781 fps=182 q=-0.0 size=N/A time=00:13:45.03 bitrate=N/A speed=7.58x    frame=19874 fps=182 q=-0.0 size=N/A time=00:13:48.91 bitrate=N/A speed=7.58x    frame=19967 fps=182 q=-0.0 size=N/A time=00:13:52.79 bitrate=N/A speed=7.58x    frame=20062 fps=182 q=-0.0 size=N/A time=00:13:56.75 bitrate=N/A speed=7.58x    frame=20147 fps=182 q=-0.0 size=N/A time=00:14:00.29 bitrate=N/A speed=7.58x    frame=20249 fps=182 q=-0.0 size=N/A time=00:14:04.55 bitrate=N/A speed=7.58x    frame=20339 fps=182 q=-0.0 size=N/A time=00:14:08.30 bitrate=N/A speed=7.58x    frame=20434 fps=182 q=-0.0 size=N/A time=00:14:12.26 bitrate=N/A speed=7.58x    frame=20529 fps=182 q=-0.0 size=N/A time=00:14:16.23 bitrate=N/A speed=7.58x    frame=20626 fps=182 q=-0.0 size=N/A time=00:14:20.27 bitrate=N/A speed=7.58x    frame=20719 fps=182 q=-0.0 size=N/A time=00:14:24.15 bitrate=N/A speed=7.58x    frame=20814 fps=182 q=-0.0 size=N/A time=00:14:28.11 bitrate=N/A speed=7.58x    frame=20906 fps=182 q=-0.0 size=N/A time=00:14:31.95 bitrate=N/A speed=7.58x    frame=21001 fps=182 q=-0.0 size=N/A time=00:14:35.91 bitrate=N/A speed=7.58x    frame=21097 fps=182 q=-0.0 size=N/A time=00:14:39.92 bitrate=N/A speed=7.58x    frame=21191 fps=182 q=-0.0 size=N/A time=00:14:43.84 bitrate=N/A speed=7.58x    frame=21289 fps=182 q=-0.0 size=N/A time=00:14:47.92 bitrate=N/A speed=7.58x    frame=21381 fps=182 q=-0.0 size=N/A time=00:14:51.76 bitrate=N/A speed=7.58x    frame=21475 fps=182 q=-0.0 size=N/A time=00:14:55.68 bitrate=N/A speed=7.58x    frame=21563 fps=182 q=-0.0 size=N/A time=00:14:59.35 bitrate=N/A speed=7.58x    frame=21657 fps=182 q=-0.0 size=N/A time=00:15:03.27 bitrate=N/A speed=7.58x    frame=21748 fps=182 q=-0.0 size=N/A time=00:15:07.07 bitrate=N/A speed=7.58x    frame=21848 fps=182 q=-0.0 size=N/A time=00:15:11.24 bitrate=N/A speed=7.58x    frame=21938 fps=182 q=-0.0 size=N/A time=00:15:14.99 bitrate=N/A speed=7.58x    frame=22031 fps=182 q=-0.0 size=N/A time=00:15:18.87 bitrate=N/A speed=7.58x    frame=22128 fps=182 q=-0.0 size=N/A time=00:15:22.92 bitrate=N/A speed=7.58x    frame=22220 fps=182 q=-0.0 size=N/A time=00:15:26.75 bitrate=N/A speed=7.58x    frame=22318 fps=182 q=-0.0 size=N/A time=00:15:30.84 bitrate=N/A speed=7.58x    frame=22412 fps=182 q=-0.0 size=N/A time=00:15:34.76 bitrate=N/A speed=7.58x    frame=22502 fps=182 q=-0.0 size=N/A time=00:15:38.52 bitrate=N/A speed=7.58x    frame=22595 fps=182 q=-0.0 size=N/A time=00:15:42.39 bitrate=N/A speed=7.58x    frame=22687 fps=182 q=-0.0 size=N/A time=00:15:46.23 bitrate=N/A speed=7.58x    frame=22783 fps=182 q=-0.0 size=N/A time=00:15:50.24 bitrate=N/A speed=7.58x    frame=22864 fps=182 q=-0.0 size=N/A time=00:15:53.61 bitrate=N/A speed=7.58x    frame=22971 fps=182 q=-0.0 size=N/A time=00:15:58.08 bitrate=N/A speed=7.58x    frame=23060 fps=182 q=-0.0 size=N/A time=00:16:01.79 bitrate=N/A speed=7.58x    frame=23155 fps=182 q=-0.0 size=N/A time=00:16:05.75 bitrate=N/A speed=7.58x    frame=23252 fps=182 q=-0.0 size=N/A time=00:16:09.80 bitrate=N/A speed=7.58x    frame=23346 fps=182 q=-0.0 size=N/A time=00:16:13.72 bitrate=N/A speed=7.58x    frame=23431 fps=182 q=-0.0 size=N/A time=00:16:17.26 bitrate=N/A speed=7.58x    frame=23533 fps=182 q=-0.0 size=N/A time=00:16:21.52 bitrate=N/A speed=7.58x    frame=23617 fps=182 q=-0.0 size=N/A time=00:16:25.02 bitrate=N/A speed=7.58x    frame=23716 fps=182 q=-0.0 size=N/A time=00:16:29.15 bitrate=N/A speed=7.58x    frame=23812 fps=182 q=-0.0 size=N/A time=00:16:33.15 bitrate=N/A speed=7.58x    frame=23908 fps=182 q=-0.0 size=N/A time=00:16:37.16 bitrate=N/A speed=7.58x    frame=24000 fps=182 q=-0.0 size=N/A time=00:16:41.00 bitrate=N/A speed=7.58x    frame=24089 fps=182 q=-0.0 size=N/A time=00:16:44.71 bitrate=N/A speed=7.58x    frame=24185 fps=182 q=-0.0 size=N/A time=00:16:48.71 bitrate=N/A speed=7.58x    frame=24276 fps=182 q=-0.0 size=N/A time=00:16:52.51 bitrate=N/A speed=7.58x    frame=24374 fps=182 q=-0.0 size=N/A time=00:16:56.59 bitrate=N/A speed=7.58x    frame=24470 fps=182 q=-0.0 size=N/A time=00:17:00.60 bitrate=N/A speed=7.58x    frame=24563 fps=182 q=-0.0 size=N/A time=00:17:04.48 bitrate=N/A speed=7.58x    frame=24659 fps=182 q=-0.0 size=N/A time=00:17:08.48 bitrate=N/A speed=7.58x    frame=24754 fps=182 q=-0.0 size=N/A time=00:17:12.44 bitrate=N/A speed=7.58x    frame=24846 fps=182 q=-0.0 size=N/A time=00:17:16.28 bitrate=N/A speed=7.58x    frame=24944 fps=182 q=-0.0 size=N/A time=00:17:20.37 bitrate=N/A speed=7.58x    frame=25040 fps=182 q=-0.0 size=N/A time=00:17:24.37 bitrate=N/A speed=7.58x    frame=25134 fps=182 q=-0.0 size=N/A time=00:17:28.29 bitrate=N/A speed=7.58x    frame=25229 fps=182 q=-0.0 size=N/A time=00:17:32.25 bitrate=N/A speed=7.58x    frame=25323 fps=182 q=-0.0 size=N/A time=00:17:36.18 bitrate=N/A speed=7.58x    frame=25420 fps=182 q=-0.0 size=N/A time=00:17:40.22 bitrate=N/A speed=7.58x    frame=25515 fps=182 q=-0.0 size=N/A time=00:17:44.18 bitrate=N/A speed=7.58x    frame=25614 fps=182 q=-0.0 size=N/A time=00:17:48.31 bitrate=N/A speed=7.59x    frame=25698 fps=182 q=-0.0 size=N/A time=00:17:51.82 bitrate=N/A speed=7.58x    frame=25801 fps=182 q=-0.0 size=N/A time=00:17:56.11 bitrate=N/A speed=7.59x    frame=25892 fps=182 q=-0.0 size=N/A time=00:17:59.91 bitrate=N/A speed=7.58x    frame=25989 fps=182 q=-0.0 size=N/A time=00:18:03.95 bitrate=N/A speed=7.59x    frame=26078 fps=182 q=-0.0 size=N/A time=00:18:07.66 bitrate=N/A speed=7.58x    frame=26174 fps=182 q=-0.0 size=N/A time=00:18:11.67 bitrate=N/A speed=7.58x    frame=26262 fps=182 q=-0.0 size=N/A time=00:18:15.34 bitrate=N/A speed=7.58x    frame=26353 fps=182 q=-0.0 size=N/A time=00:18:19.13 bitrate=N/A speed=7.58x    frame=26453 fps=182 q=-0.0 size=N/A time=00:18:23.31 bitrate=N/A speed=7.58x    frame=26542 fps=182 q=-0.0 size=N/A time=00:18:27.02 bitrate=N/A speed=7.58x    frame=26643 fps=182 q=-0.0 size=N/A time=00:18:31.23 bitrate=N/A speed=7.58x    frame=26732 fps=182 q=-0.0 size=N/A time=00:18:34.94 bitrate=N/A speed=7.58x    frame=26832 fps=182 q=-0.0 size=N/A time=00:18:39.11 bitrate=N/A speed=7.59x    frame=26928 fps=182 q=-0.0 size=N/A time=00:18:43.12 bitrate=N/A speed=7.59x    frame=27022 fps=182 q=-0.0 size=N/A time=00:18:47.04 bitrate=N/A speed=7.59x    frame=27107 fps=182 q=-0.0 size=N/A time=00:18:50.58 bitrate=N/A speed=7.58x    frame=27212 fps=182 q=-0.0 size=N/A time=00:18:54.96 bitrate=N/A speed=7.59x    frame=27306 fps=182 q=-0.0 size=N/A time=00:18:58.88 bitrate=N/A speed=7.59x    frame=27402 fps=182 q=-0.0 size=N/A time=00:19:02.89 bitrate=N/A speed=7.59x    frame=27490 fps=182 q=-0.0 size=N/A time=00:19:06.56 bitrate=N/A speed=7.58x    frame=27589 fps=182 q=-0.0 size=N/A time=00:19:10.69 bitrate=N/A speed=7.59x    frame=27680 fps=182 q=-0.0 size=N/A time=00:19:14.48 bitrate=N/A speed=7.59x    frame=27777 fps=182 q=-0.0 size=N/A time=00:19:18.53 bitrate=N/A speed=7.59x    frame=27873 fps=182 q=-0.0 size=N/A time=00:19:22.53 bitrate=N/A speed=7.59x    frame=27966 fps=182 q=-0.0 size=N/A time=00:19:26.41 bitrate=N/A speed=7.59x    frame=28063 fps=182 q=-0.0 size=N/A time=00:19:30.46 bitrate=N/A speed=7.59x    frame=28155 fps=182 q=-0.0 size=N/A time=00:19:34.29 bitrate=N/A speed=7.59x    frame=28253 fps=182 q=-0.0 size=N/A time=00:19:38.38 bitrate=N/A speed=7.59x    frame=28348 fps=182 q=-0.0 size=N/A time=00:19:42.34 bitrate=N/A speed=7.59x    frame=28441 fps=182 q=-0.0 size=N/A time=00:19:46.22 bitrate=N/A speed=7.59x    frame=28534 fps=182 q=-0.0 size=N/A time=00:19:50.10 bitrate=N/A speed=7.59x    frame=28629 fps=182 q=-0.0 size=N/A time=00:19:54.06 bitrate=N/A speed=7.59x    frame=28721 fps=182 q=-0.0 size=N/A time=00:19:57.90 bitrate=N/A speed=7.59x    frame=28810 fps=182 q=-0.0 size=N/A time=00:20:01.61 bitrate=N/A speed=7.59x    frame=28910 fps=182 q=-0.0 size=N/A time=00:20:05.78 bitrate=N/A speed=7.59x    frame=29002 fps=182 q=-0.0 size=N/A time=00:20:09.62 bitrate=N/A speed=7.59x    frame=29093 fps=182 q=-0.0 size=N/A time=00:20:13.42 bitrate=N/A speed=7.59x    frame=29180 fps=182 q=-0.0 size=N/A time=00:20:17.04 bitrate=N/A speed=7.59x    frame=29287 fps=182 q=-0.0 size=N/A time=00:20:21.51 bitrate=N/A speed=7.59x    frame=29379 fps=182 q=-0.0 size=N/A time=00:20:25.34 bitrate=N/A speed=7.59x    frame=29475 fps=182 q=-0.0 size=N/A time=00:20:29.35 bitrate=N/A speed=7.59x    frame=29565 fps=182 q=-0.0 size=N/A time=00:20:33.10 bitrate=N/A speed=7.59x    frame=29662 fps=182 q=-0.0 size=N/A time=00:20:37.15 bitrate=N/A speed=7.59x    frame=29754 fps=182 q=-0.0 size=N/A time=00:20:40.98 bitrate=N/A speed=7.59x    frame=29855 fps=182 q=-0.0 size=N/A time=00:20:45.20 bitrate=N/A speed=7.59x    frame=29947 fps=182 q=-0.0 size=N/A time=00:20:49.03 bitrate=N/A speed=7.59x    frame=30045 fps=182 q=-0.0 size=N/A time=00:20:53.12 bitrate=N/A speed=7.59x    frame=30142 fps=182 q=-0.0 size=N/A time=00:20:57.17 bitrate=N/A speed=7.59x    frame=30233 fps=182 q=-0.0 size=N/A time=00:21:00.96 bitrate=N/A speed=7.59x    frame=30330 fps=182 q=-0.0 size=N/A time=00:21:05.01 bitrate=N/A speed=7.59x    frame=30409 fps=182 q=-0.0 size=N/A time=00:21:08.30 bitrate=N/A speed=7.59x    frame=30514 fps=182 q=-0.0 size=N/A time=00:21:12.68 bitrate=N/A speed=7.59x    frame=30609 fps=182 q=-0.0 size=N/A time=00:21:16.65 bitrate=N/A speed=7.59x    frame=30705 fps=182 q=-0.0 size=N/A time=00:21:20.65 bitrate=N/A speed=7.59x    frame=30801 fps=182 q=-0.0 size=N/A time=00:21:24.65 bitrate=N/A speed=7.59x    frame=30887 fps=182 q=-0.0 size=N/A time=00:21:28.24 bitrate=N/A speed=7.59x    frame=30977 fps=182 q=-0.0 size=N/A time=00:21:31.99 bitrate=N/A speed=7.59x    frame=31075 fps=182 q=-0.0 size=N/A time=00:21:36.08 bitrate=N/A speed=7.59x    frame=31183 fps=182 q=-0.0 size=N/A time=00:21:40.59 bitrate=N/A speed=7.59x    frame=31277 fps=182 q=-0.0 size=N/A time=00:21:44.51 bitrate=N/A speed=7.59x    frame=31367 fps=182 q=-0.0 size=N/A time=00:21:48.26 bitrate=N/A speed=7.59x    frame=31465 fps=182 q=-0.0 size=N/A time=00:21:52.35 bitrate=N/A speed=7.59x    frame=31547 fps=182 q=-0.0 size=N/A time=00:21:55.77 bitrate=N/A speed=7.59x    frame=31645 fps=182 q=-0.0 size=N/A time=00:21:59.86 bitrate=N/A speed=7.59x    frame=31751 fps=182 q=-0.0 size=N/A time=00:22:04.28 bitrate=N/A speed=7.59x    frame=31843 fps=182 q=-0.0 size=N/A time=00:22:08.11 bitrate=N/A speed=7.59x    frame=31933 fps=182 q=-0.0 size=N/A time=00:22:11.87 bitrate=N/A speed=7.59x    frame=32030 fps=182 q=-0.0 size=N/A time=00:22:15.91 bitrate=N/A speed=7.59x    frame=32127 fps=182 q=-0.0 size=N/A time=00:22:19.96 bitrate=N/A speed=7.59x    frame=32223 fps=182 q=-0.0 size=N/A time=00:22:23.96 bitrate=N/A speed=7.59x    frame=32310 fps=182 q=-0.0 size=N/A time=00:22:27.59 bitrate=N/A speed=7.59x    frame=32409 fps=182 q=-0.0 size=N/A time=00:22:31.72 bitrate=N/A speed=7.59x    frame=32500 fps=182 q=-0.0 size=N/A time=00:22:35.52 bitrate=N/A speed=7.59x    frame=32594 fps=182 q=-0.0 size=N/A time=00:22:39.44 bitrate=N/A speed=7.59x    frame=32682 fps=182 q=-0.0 size=N/A time=00:22:43.11 bitrate=N/A speed=7.59x    frame=32769 fps=182 q=-0.0 size=N/A time=00:22:46.74 bitrate=N/A speed=7.59x    frame=32864 fps=182 q=-0.0 size=N/A time=00:22:50.70 bitrate=N/A speed=7.59x    frame=32957 fps=182 q=-0.0 size=N/A time=00:22:54.58 bitrate=N/A speed=7.59x    frame=33048 fps=182 q=-0.0 size=N/A time=00:22:58.37 bitrate=N/A speed=7.59x    frame=33143 fps=182 q=-0.0 size=N/A time=00:23:02.33 bitrate=N/A speed=7.59x    frame=33234 fps=182 q=-0.0 size=N/A time=00:23:06.13 bitrate=N/A speed=7.59x    frame=33328 fps=182 q=-0.0 size=N/A time=00:23:10.05 bitrate=N/A speed=7.59x    frame=33421 fps=182 q=-0.0 size=N/A time=00:23:13.93 bitrate=N/A speed=7.59x    frame=33516 fps=182 q=-0.0 size=N/A time=00:23:17.89 bitrate=N/A speed=7.59x    frame=33607 fps=182 q=-0.0 size=N/A time=00:23:21.69 bitrate=N/A speed=7.59x    frame=33692 fps=182 q=-0.0 size=N/A time=00:23:25.23 bitrate=N/A speed=7.59x    frame=33793 fps=182 q=-0.0 size=N/A time=00:23:29.44 bitrate=N/A speed=7.59x    frame=33889 fps=182 q=-0.0 size=N/A time=00:23:33.45 bitrate=N/A speed=7.59x    frame=33984 fps=182 q=-0.0 size=N/A time=00:23:37.41 bitrate=N/A speed=7.59x    [Parsed_ssim_10 @ 0000014252accac0] SSIM Y:0.989748 (19.892094) U:0.991758 (20.839478) V:0.992043 (20.992546) All:0.990466 (20.207127)
[out#0/null @ 000001425284aac0] video:14629KiB audio:266260KiB subtitle:0KiB other streams:0KiB global headers:0KiB muxing overhead: unknown
frame=34046 fps=182 q=-0.0 Lsize=N/A time=00:23:40.00 bitrate=N/A speed=7.59x    
